<?xml version="1.0" standalone="no"?>
<!DOCTYPE svg PUBLIC "-//W3C//DTD SVG 20010904//EN"
 "http://www.w3.org/TR/2001/REC-SVG-20010904/DTD/svg10.dtd">
<svg version="1.0" xmlns="http://www.w3.org/2000/svg"
 width="800.000000pt" height="800.000000pt" viewBox="0 0 800.000000 800.000000"
 preserveAspectRatio="xMidYMid meet">
<metadata>
Created by potrace 1.14, written by Peter Selinger 2001-2017
</metadata>
<g transform="translate(0.000000,800.000000) scale(0.100000,-0.100000)"
fill="#000000" stroke="none">
<path d="M3310 7669 c-472 -39 -798 -180 -1095 -475 -249 -247 -443 -548 -736
-1142 -149 -303 -206 -429 -275 -615 -203 -545 -264 -1120 -173 -1647 148
-858 643 -1616 1400 -2147 60 -42 109 -80 109 -85 0 -26 -203 -249 -327 -359
-118 -105 -131 -132 -94 -193 21 -34 31 -41 85 -57 53 -16 103 18 258 173 79
78 175 183 212 231 38 48 71 87 75 85 4 -2 86 -42 182 -90 338 -168 720 -295
1059 -354 97 -16 107 -20 135 -52 18 -20 44 -36 65 -41 l35 -7 7 -73 c4 -41
23 -133 42 -205 19 -72 37 -151 41 -176 10 -65 31 -100 70 -116 99 -41 176 16
160 118 -4 24 -22 105 -41 181 -19 75 -37 163 -40 195 l-6 57 88 -7 c192 -15
728 -21 879 -9 414 33 737 111 1033 252 300 141 434 305 392 478 -22 93 -52
121 -214 200 -164 80 -186 102 -186 187 0 64 10 99 85 289 186 472 299 921
361 1425 25 207 30 710 10 927 -84 879 -418 1615 -996 2193 -473 474 -1021
756 -1630 839 -220 31 -714 40 -970 20z m637 -210 c293 -24 595 -85 810 -165
697 -259 1307 -851 1630 -1580 144 -326 231 -660 280 -1064 21 -179 24 -662 5
-850 -52 -506 -160 -949 -357 -1460 -89 -229 -106 -295 -107 -400 0 -166 64
-264 212 -325 46 -19 92 -35 101 -35 24 0 46 -102 30 -136 -22 -49 -259 -172
-461 -238 -227 -74 -449 -111 -757 -126 -220 -10 -653 3 -840 26 -33 4 -43 9
-43 24 0 10 -14 30 -32 45 -28 24 -37 26 -87 21 -91 -9 -119 -7 -271 20 -514
89 -1021 289 -1433 566 -770 518 -1246 1256 -1378 2138 -33 222 -33 567 0 790
73 493 241 903 704 1715 160 280 326 508 467 639 249 230 575 354 1050 399 83
8 359 6 477 -4z"/>
<path d="M2750 6211 c-69 -21 -140 -82 -176 -151 -28 -52 -26 -172 3 -226 108
-203 387 -203 490 0 88 174 -49 389 -246 385 -25 0 -57 -4 -71 -8z"/>
<path d="M4936 5764 c-72 -23 -149 -103 -171 -179 -64 -219 164 -418 370 -321
182 85 217 315 68 446 -75 65 -168 84 -267 54z"/>
<path d="M3095 5700 c-77 -12 -195 -53 -264 -92 -72 -41 -176 -140 -223 -212
-54 -83 -78 -169 -78 -275 1 -357 301 -637 795 -739 138 -29 285 -47 593 -73
210 -18 271 -20 296 -11 18 7 42 12 54 12 11 0 23 4 26 9 3 4 37 11 76 15 91
8 298 52 364 76 94 36 151 98 167 185 11 59 -33 303 -72 401 -92 235 -215 366
-426 456 -103 45 -677 195 -872 229 -133 23 -348 32 -436 19z m-16 -259 c-112
-47 -192 -113 -246 -201 -26 -43 -53 -132 -54 -179 0 -34 -1 -35 -11 -11 -5
14 -8 57 -6 96 9 148 107 254 283 305 91 27 108 22 34 -10z"/>
</g>
</svg>
